<?xml version="1.0" encoding="UTF-8" standalone="no"?>
<!DOCTYPE svg PUBLIC "-//W3C//DTD SVG 1.1//EN" "http://www.w3.org/Graphics/SVG/1.1/DTD/svg11.dtd">
<svg width="100%" height="100%" viewBox="0 0 512 512" version="1.1" xmlns="http://www.w3.org/2000/svg" xmlns:xlink="http://www.w3.org/1999/xlink" xml:space="preserve" xmlns:serif="http://www.serif.com/" style="fill-rule:evenodd;clip-rule:evenodd;stroke-linejoin:round;stroke-miterlimit:2;">
    <g transform="matrix(0.625,0,0,0.625,96,96)">
        <path d="M263.312,299.189C263.228,299.272 263.145,299.355 263.061,299.435L263.114,299.384L263.312,299.189ZM247.905,305.487C247.991,305.488 248.076,305.488 248.162,305.488L247.905,305.487C247.819,305.485 247.734,305.484 247.648,305.482L247.905,305.487ZM248.531,305.484C248.408,305.487 248.285,305.488 248.162,305.488L248.418,305.486L248.531,305.484ZM244.35,305.146C244.763,305.221 245.178,305.284 245.595,305.334C245.178,305.284 244.764,305.221 244.35,305.146ZM251.468,305.231L251.488,305.228L251.468,305.231ZM254.053,304.661C253.374,304.855 252.687,305.015 251.996,305.142L252.249,305.094C252.855,304.976 253.457,304.832 254.053,304.661ZM244.069,305.094C243.902,305.061 243.736,305.027 243.569,304.99L243.822,305.044L244.069,305.094ZM242.816,304.811C242.9,304.832 242.983,304.853 243.067,304.874C242.983,304.853 242.9,304.832 242.816,304.811ZM255.731,304.103L255.608,304.149L255.731,304.103L255.889,304.043L255.731,304.103ZM239.386,303.606L239.148,303.497L239.386,303.606ZM257.438,303.37C257.272,303.45 257.105,303.528 256.937,303.604L257.175,303.495C257.263,303.454 257.351,303.412 257.438,303.37ZM237.973,302.905C238.229,303.044 238.487,303.177 238.748,303.305C238.409,303.139 238.073,302.963 237.741,302.777L237.973,302.905ZM258.812,302.644L259.041,302.51C258.859,302.618 258.677,302.722 258.493,302.824C258.6,302.765 258.706,302.705 258.812,302.644ZM259.944,301.945L259.939,301.947L259.944,301.945L260.038,301.881L259.944,301.945ZM262.098,300.315C261.558,300.78 260.999,301.213 260.425,301.616C260.999,301.214 261.557,300.78 262.098,300.315ZM234.224,300.318L234.428,300.492L234.224,300.318L234.125,300.232L234.224,300.318ZM233.387,299.561C233.491,299.659 233.595,299.757 233.702,299.854C233.596,299.758 233.491,299.66 233.387,299.561ZM210.328,276.034C210.494,276.273 210.665,276.508 210.842,276.741C210.665,276.508 210.494,276.272 210.328,276.034ZM209.51,274.764L209.566,274.858L209.51,274.764L209.423,274.616L209.51,274.764ZM301.178,261.23L301.094,261.337L301.178,261.23L301.268,261.112L301.178,261.23ZM303.258,238.429C306.937,245.58 306.317,254.333 301.397,260.94C306.317,254.332 306.937,245.579 303.258,238.429ZM302.371,236.87C302.608,237.249 302.833,237.634 303.044,238.025C302.833,237.635 302.609,237.25 302.371,236.87ZM302.065,236.395L301.926,236.188C302.059,236.383 302.188,236.58 302.314,236.779C302.232,236.65 302.15,236.522 302.065,236.395ZM301.262,235.266L301.188,235.169L301.067,235.014L301.188,235.169L301.262,235.266ZM277.716,211.541C278.204,211.95 278.678,212.384 279.137,212.844C278.678,212.384 278.204,211.95 277.716,211.541ZM276.307,210.456C276.626,210.681 276.94,210.916 277.248,211.16C276.94,210.916 276.627,210.681 276.307,210.456ZM274.177,209.129C274.438,209.271 274.698,209.42 274.955,209.574C274.698,209.42 274.439,209.272 274.177,209.129ZM270.577,207.583C271.23,207.794 271.874,208.038 272.508,208.314C271.954,208.073 271.392,207.856 270.823,207.664L270.577,207.583ZM300.683,261.851L300.864,261.628L444.718,117.739L441.138,266.278C440.824,278.335 450.483,288.245 462.541,288.181L490.569,288.177C502.437,288.176 512.031,278.579 511.967,266.774L512,21.398C511.999,9.53 502.402,-0.064 490.597,0L245.157,0.03C233.29,0.032 223.695,9.628 223.76,21.433L223.763,49.462C223.765,61.456 233.677,71.113 245.671,70.859L394.21,67.243L212.803,248.693L211.481,250.155L248.836,212.831C254.61,207.062 262.8,205.261 270.082,207.429C262.8,205.261 254.61,207.062 248.836,212.831L211.481,250.155C205.669,257.108 204.954,266.819 209.33,274.456C204.954,266.819 205.669,257.108 211.481,250.155L67.333,394.186L70.992,245.648C71.313,233.591 61.658,223.676 49.601,223.734L21.572,223.723C9.704,223.718 0.105,233.309 0.163,245.114L0,490.491C-0.005,502.359 9.587,511.958 21.391,511.9L266.831,512C278.699,512.005 288.298,502.413 288.24,490.609L288.252,462.58C288.256,450.586 278.349,440.923 266.355,441.171L117.815,444.708L299.317,263.354C299.801,262.87 300.258,262.369 300.683,261.851Z" style="fill:white;"/>
    </g>
</svg>