<?xml version="1.0" encoding="UTF-8" standalone="no"?>
<!DOCTYPE svg PUBLIC "-//W3C//DTD SVG 1.1//EN" "http://www.w3.org/Graphics/SVG/1.1/DTD/svg11.dtd">
<svg width="100%" height="100%" viewBox="0 0 512 512" version="1.1" xmlns="http://www.w3.org/2000/svg" xmlns:xlink="http://www.w3.org/1999/xlink" xml:space="preserve" xmlns:serif="http://www.serif.com/" style="fill-rule:evenodd;clip-rule:evenodd;stroke-linejoin:round;stroke-miterlimit:2;">
    <g transform="matrix(-0.824365,0,0,0.824365,440.637,44.9626)">
        <path d="M257.5,445.1L235.3,467.3C225.9,476.7 210.7,476.7 201.4,467.3L7,273C-2.4,263.6 -2.4,248.4 7,239.1L201.4,44.7C210.8,35.3 226,35.3 235.3,44.7L257.5,66.9C267,76.4 266.8,91.9 257.1,101.2L136.6,216L424,216C437.3,216 448,226.7 448,240L448,272C448,285.3 437.3,296 424,296L136.6,296L257.1,410.8C266.9,420.1 267.1,435.6 257.5,445.1Z" style="fill:white;fill-rule:nonzero;"/>
    </g>
</svg>