<?xml version="1.0" encoding="UTF-8" standalone="no"?>
<!DOCTYPE svg PUBLIC "-//W3C//DTD SVG 1.1//EN" "http://www.w3.org/Graphics/SVG/1.1/DTD/svg11.dtd">
<svg width="100%" height="100%" viewBox="0 0 512 512" version="1.1" xmlns="http://www.w3.org/2000/svg" xmlns:xlink="http://www.w3.org/1999/xlink" xml:space="preserve" xmlns:serif="http://www.serif.com/" style="fill-rule:evenodd;clip-rule:evenodd;stroke-linejoin:round;stroke-miterlimit:2;">
    <g transform="matrix(1.30338,1.65217e-32,-2.31304e-31,1.53204,306.127,201.292)">
        <path d="M76.761,83.911C76.761,76.668 69.849,70.787 61.334,70.787L15.427,70.787C6.913,70.787 0,76.668 0,83.911L0,127.818C0,135.061 6.913,140.942 15.427,140.942L61.334,140.942C69.849,140.942 76.761,135.061 76.761,127.818L76.761,83.911Z" style="fill:white;"/>
    </g>
    <g transform="matrix(1.30338,1.65217e-32,-2.14782e-31,1.53204,105.824,201.292)">
        <path d="M76.761,83.911C76.761,76.668 69.849,70.787 61.334,70.787L15.427,70.787C6.913,70.787 0,76.668 0,83.911L0,127.818C0,135.061 6.913,140.942 15.427,140.942L61.334,140.942C69.849,140.942 76.761,135.061 76.761,127.818L76.761,83.911Z" style="fill:white;"/>
    </g>
    <g transform="matrix(1.30338,3.30434e-32,-1.81739e-31,1.53204,306.127,-13.6689)">
        <path d="M76.761,83.911C76.761,76.668 69.849,70.787 61.334,70.787L15.427,70.787C6.913,70.787 0,76.668 0,83.911L0,127.818C0,135.061 6.913,140.942 15.427,140.942L61.334,140.942C69.849,140.942 76.761,135.061 76.761,127.818L76.761,83.911Z" style="fill:white;"/>
    </g>
    <g transform="matrix(1.30338,3.30434e-32,-1.65217e-31,1.53204,105.824,-13.6689)">
        <path d="M76.761,83.911C76.761,76.668 69.849,70.787 61.334,70.787L15.427,70.787C6.913,70.787 0,76.668 0,83.911L0,127.818C0,135.061 6.913,140.942 15.427,140.942L61.334,140.942C69.849,140.942 76.761,135.061 76.761,127.818L76.761,83.911Z" style="fill:white;"/>
    </g>
</svg>